<svg aria-hidden="true" style="position: absolute; width: 0; height: 0; overflow: hidden;" version="1.1" xmlns="http://www.w3.org/2000/svg" xmlns:xlink="http://www.w3.org/1999/xlink">
<defs>
<symbol id="icon-down" viewBox="0 0 48 32">
<path fill="none" stroke="#fcd54c" style="stroke: var(--color1, #fcd54c)" stroke-linejoin="miter" stroke-linecap="butt" stroke-miterlimit="4" stroke-width="2.2857" d="M23.596 28.973l22.913-25.895"></path>
<path fill="none" stroke="#fcd54c" style="stroke: var(--color1, #fcd54c)" stroke-linejoin="miter" stroke-linecap="butt" stroke-miterlimit="4" stroke-width="2.2857" d="M0.739 3.080l22.913 25.895"></path>
</symbol>
<symbol id="icon-right" viewBox="0 0 19 32">
<path fill="none" stroke="#fcd54c" style="stroke: var(--color1, #fcd54c)" stroke-linejoin="miter" stroke-linecap="butt" stroke-miterlimit="4" stroke-width="1.4545" d="M17.455 16.037l-16.478-14.581"></path>
<path fill="none" stroke="#fcd54c" style="stroke: var(--color1, #fcd54c)" stroke-linejoin="miter" stroke-linecap="butt" stroke-miterlimit="4" stroke-width="1.4545" d="M0.976 30.582l16.478-14.581"></path>
</symbol>
<symbol id="icon-arrow" viewBox="0 0 19 32">
<path fill="none" stroke="#929292" style="stroke: var(--color1, #929292)" stroke-linejoin="miter" stroke-linecap="butt" stroke-miterlimit="4" stroke-width="1.8824" d="M16.941 16.018l-15.058-14.135"></path>
<path fill="none" stroke="#929292" style="stroke: var(--color1, #929292)" stroke-linejoin="miter" stroke-linecap="butt" stroke-miterlimit="4" stroke-width="1.8824" d="M1.882 30.118l15.058-14.135"></path>
</symbol>
<symbol id="icon-arrow-orange" viewBox="0 0 21 32">
<path fill="none" stroke="#fcd54c" style="stroke: var(--color1, #fcd54c)" stroke-linejoin="miter" stroke-linecap="butt" stroke-miterlimit="4" stroke-width="3.5556" d="M18.917 17.153l-15.359-13.599"></path>
<path fill="none" stroke="#fcd54c" style="stroke: var(--color1, #fcd54c)" stroke-linejoin="miter" stroke-linecap="butt" stroke-miterlimit="4" stroke-width="3.5556" d="M3.556 30.722l15.359-13.599"></path>
</symbol>
<symbol id="icon-down-menu" viewBox="0 0 50 32">
<path fill="none" stroke="#929292" style="stroke: var(--color1, #929292)" stroke-linejoin="miter" stroke-linecap="butt" stroke-miterlimit="4" stroke-width="3.5556" d="M24.861 27.681l21.359-24.124"></path>
<path fill="none" stroke="#929292" style="stroke: var(--color1, #929292)" stroke-linejoin="miter" stroke-linecap="butt" stroke-miterlimit="4" stroke-width="3.5556" d="M3.556 3.556l21.359 24.124"></path>
</symbol>
<symbol id="icon-linkedin" viewBox="0 0 32 32">
<path d="M27.266 27.267h-4.741v-7.427c0-1.771-0.032-4.051-2.466-4.051-2.469 0-2.848 1.929-2.848 3.921v7.557h-4.741v-15.27h4.552v2.087h0.061c0.882-1.488 2.479-2.47 4.306-2.47 0.065 0 0.13 0.001 0.195 0.004l-0.009-0c4.806 0 5.692 3.161 5.692 7.273zM7.119 9.909c-0 0-0 0-0.001 0-1.52 0-2.752-1.232-2.752-2.752s1.232-2.752 2.752-2.752c1.52 0 2.752 1.232 2.752 2.752v0c0 1.52-1.232 2.751-2.751 2.752h-0zM9.49 27.266h-4.746v-15.27h4.747zM29.628 0.002h-27.267c-0.008-0-0.018-0-0.028-0-1.28 0-2.319 1.031-2.332 2.308v27.378c0.016 1.279 1.056 2.309 2.337 2.309 0.009 0 0.017-0 0.026-0h27.265c0.009 0 0.020 0 0.032 0 1.282 0 2.323-1.030 2.342-2.308l0-0.002v-27.382c-0.019-1.278-1.059-2.306-2.34-2.306-0.012 0-0.023 0-0.035 0l0.002-0z"></path>
</symbol>
<symbol id="icon-utub" viewBox="0 0 45 32">
<path  d="M43.664 5.831c-0.486-1.944-2.025-3.484-3.889-3.97-3.484-0.972-17.257-0.972-17.257-0.972s-13.854 0-17.338 0.972c-1.863 0.486-3.403 2.025-3.889 3.97-0.972 3.403-0.972 10.695-0.972 10.695s0 7.211 0.972 10.694c0.486 1.944 2.025 3.403 3.889 3.889 3.484 0.891 17.338 0.891 17.338 0.891s13.773 0 17.257-0.891c1.863-0.486 3.403-1.944 3.889-3.889 0.972-3.484 0.972-10.694 0.972-10.694s0-7.292-0.972-10.694zM17.982 23.088v-13.125l11.505 6.563-11.505 6.563z"></path>
</symbol>
<symbol id="icon-twitter" viewBox="0 0 37 32">
<path  d="M33.469 8.283c1.458-1.094 2.771-2.406 3.792-3.938-1.312 0.583-2.844 1.021-4.375 1.167 1.604-0.948 2.771-2.406 3.354-4.229-1.458 0.875-3.135 1.531-4.812 1.896-1.458-1.531-3.427-2.406-5.615-2.406-4.229 0-7.656 3.427-7.656 7.656 0 0.583 0.073 1.167 0.219 1.75-6.344-0.365-12.031-3.427-15.823-8.021-0.656 1.094-1.021 2.406-1.021 3.865 0 2.625 1.313 4.958 3.427 6.344-1.24-0.073-2.479-0.365-3.5-0.948v0.073c0 3.719 2.625 6.781 6.125 7.511-0.583 0.146-1.313 0.292-1.969 0.292-0.51 0-0.948-0.073-1.458-0.146 0.948 3.063 3.792 5.25 7.146 5.323-2.625 2.042-5.906 3.281-9.479 3.281-0.656 0-1.24-0.073-1.823-0.146 3.354 2.187 7.365 3.427 11.74 3.427 14.073 0 21.729-11.594 21.729-21.729 0-0.365 0-0.656 0-1.021z"></path>
</symbol>
<symbol id="icon-facebook" viewBox="0 0 32 32">
<path d="M8.434 17.043h3.508v14.441c0 0.285 0.231 0.516 0.516 0.516h5.947c0.285 0 0.516-0.231 0.516-0.516v-14.373h4.032c0.262 0 0.483-0.197 0.513-0.457l0.612-5.316c0.017-0.146-0.030-0.293-0.127-0.402s-0.238-0.173-0.385-0.173h-4.645v-3.333c0-1.005 0.541-1.514 1.608-1.514 0.152 0 3.037 0 3.037 0 0.285 0 0.516-0.231 0.516-0.516v-4.88c0-0.285-0.231-0.516-0.516-0.516h-4.185c-0.030-0.001-0.095-0.004-0.192-0.004-0.726 0-3.25 0.143-5.244 1.977-2.209 2.033-1.902 4.467-1.829 4.889v3.897h-3.682c-0.285 0-0.516 0.231-0.516 0.516v5.248c0 0.285 0.231 0.516 0.516 0.516z"></path>
</symbol>
<symbol id="icon-instagram" viewBox="0 0 34 32">
<path d="M33.752 9.342c0-1.789-0.398-2.783-0.795-3.975-0.398-0.994-0.994-1.988-1.789-2.783-0.795-0.994-1.789-1.391-2.783-1.789s-2.186-0.596-3.975-0.795c-1.789 0-2.385 0-6.758 0-4.174 0-4.77 0-6.559 0s-2.783 0.398-3.975 0.795c-0.994 0.397-1.988 0.994-2.783 1.789-0.795 0.994-1.391 1.789-1.789 2.981-0.397 0.994-0.596 2.186-0.795 3.776 0 1.789 0 2.385 0 6.559 0 4.373 0 4.969 0 6.559 0 1.789 0.397 2.782 0.795 3.975 0.397 0.994 0.994 1.988 1.789 2.782 0.994 0.994 1.789 1.391 2.783 1.789s2.186 0.596 3.975 0.795c1.789 0 2.186 0 6.559 0s4.969 0 6.559 0c1.789 0 2.783-0.398 3.975-0.795 0.994-0.397 1.988-0.994 2.783-1.789 0.994-0.994 1.391-1.789 1.789-2.782s0.596-2.186 0.795-3.975 0-2.186 0-6.559c0-4.373 0.199-4.77 0.199-6.559zM17.652 24.248c-4.571 0-8.149-3.776-8.149-8.149 0-4.571 3.776-8.149 8.149-8.149 4.571 0 8.149 3.776 8.149 8.149 0.199 4.373-3.578 8.149-8.149 8.149zM26.199 9.342c-0.994 0-1.988-0.795-1.988-1.988 0-0.994 0.795-1.988 1.988-1.988 0.994 0 1.988 0.795 1.988 1.988s-0.795 1.988-1.988 1.988z"></path>
<path d="M23.020 15.903c0 2.981-2.385 5.366-5.366 5.366s-5.366-2.385-5.366-5.366c0-2.981 2.584-5.168 5.366-5.168 2.981 0 5.366 2.385 5.366 5.168z"></path>
</symbol>
</defs>
</svg>
